<?xml version="1.0" encoding="UTF-8" standalone="no"?>
<!-- Created with Inkscape (http://www.inkscape.org/) -->

<svg
   xmlns:dc="http://purl.org/dc/elements/1.1/"
   xmlns:cc="http://creativecommons.org/ns#"
   xmlns:rdf="http://www.w3.org/1999/02/22-rdf-syntax-ns#"
   xmlns:svg="http://www.w3.org/2000/svg"
   xmlns="http://www.w3.org/2000/svg"
   xmlns:sodipodi="http://sodipodi.sourceforge.net/DTD/sodipodi-0.dtd"
   xmlns:inkscape="http://www.inkscape.org/namespaces/inkscape"
   id="svg3336"
   version="1.1"
   inkscape:version="0.91 r13725"
   xml:space="preserve"
   width="744.09998"
   height="1052.3625"
   viewBox="0 0 744.09998 1052.3625"
   sodipodi:docname="Supplementary Fig. 6.svg"><metadata
     id="metadata3342"><rdf:RDF><cc:Work
         rdf:about=""><dc:format>image/svg+xml</dc:format><dc:type
           rdf:resource="http://purl.org/dc/dcmitype/StillImage" /><dc:title></dc:title></cc:Work></rdf:RDF></metadata><defs
     id="defs3340"><clipPath
       clipPathUnits="userSpaceOnUse"
       id="clipPath3350"><path
         d="m 0,841.89 595.28,0 L 595.28,0 0,0 0,841.89 Z"
         id="path3352"
         inkscape:connector-curvature="0" /></clipPath><clipPath
       clipPathUnits="userSpaceOnUse"
       id="clipPath3358"><path
         d="m 89.8359,610.668 44.6921,0 0,-44.414 -44.6921,0 0,44.414 z"
         id="path3360"
         inkscape:connector-curvature="0" /></clipPath><clipPath
       clipPathUnits="userSpaceOnUse"
       id="clipPath3374"><path
         d="m 100.869,627.251 65.42,0 0,-65.014 -65.42,0 0,65.014 z"
         id="path3376"
         inkscape:connector-curvature="0" /></clipPath><clipPath
       clipPathUnits="userSpaceOnUse"
       id="clipPath3390"><path
         d="m 86.2432,623.05 96.5688,0 0,-95.967 -96.5688,0 0,95.967 z"
         id="path3392"
         inkscape:connector-curvature="0" /></clipPath><clipPath
       clipPathUnits="userSpaceOnUse"
       id="clipPath3432"><path
         d="m 0,841.89 595.28,0 L 595.28,0 0,0 0,841.89 Z"
         id="path3434"
         inkscape:connector-curvature="0" /></clipPath><clipPath
       clipPathUnits="userSpaceOnUse"
       id="clipPath3440"><path
         d="m 97.6772,734.099 83.4188,0 0,-83.418 -83.4188,0 0,83.418 z"
         id="path3442"
         inkscape:connector-curvature="0" /></clipPath><clipPath
       clipPathUnits="userSpaceOnUse"
       id="clipPath3456"><path
         d="m 78.73,728.311 72.626,0 0,-72.626 -72.626,0 0,72.626 z"
         id="path3458"
         inkscape:connector-curvature="0" /></clipPath></defs><sodipodi:namedview
     pagecolor="#ffffff"
     bordercolor="#666666"
     borderopacity="1"
     objecttolerance="10"
     gridtolerance="10"
     guidetolerance="10"
     inkscape:pageopacity="0"
     inkscape:pageshadow="2"
     inkscape:window-width="1366"
     inkscape:window-height="705"
     id="namedview3338"
     showgrid="false"
     inkscape:zoom="1.4244771"
     inkscape:cx="298.4064"
     inkscape:cy="801.66192"
     inkscape:window-x="-8"
     inkscape:window-y="-8"
     inkscape:window-maximized="1"
     inkscape:current-layer="g3344" /><g
     id="g3344"
     inkscape:groupmode="layer"
     inkscape:label="Supplementary Fig. 6"
     transform="matrix(1.25,0,0,-1.25,0,1052.3625)"><g
       id="g3346"><g
         id="g3348"
         clip-path="url(#clipPath3350)"><g
           id="g3354"><g
             id="g3356" /><g
             id="g3362"><g
               clip-path="url(#clipPath3358)"
               id="g3364"
               style="opacity:0.75999499"><g
                 transform="translate(134.5278,588.4604)"
                 id="g3366"><path
                   d="m 0,0 c 0,-12.265 -10.004,-22.207 -22.345,-22.207 -12.343,0 -22.347,9.942 -22.347,22.207 0,12.264 10.004,22.208 22.347,22.208 C -10.004,22.208 0,12.264 0,0"
                   style="fill:#3e4faa;fill-opacity:1;fill-rule:nonzero;stroke:none"
                   id="path3368"
                   inkscape:connector-curvature="0" /></g></g></g></g><g
           id="g3370"><g
             id="g3372" /><g
             id="g3378"><g
               clip-path="url(#clipPath3374)"
               id="g3380"
               style="opacity:0.66999799"><g
                 transform="translate(166.2891,594.7451)"
                 id="g3382"><path
                   d="m 0,0 c 0,-17.952 -14.646,-32.508 -32.711,-32.508 -18.063,0 -32.709,14.556 -32.709,32.508 0,17.952 14.646,32.506 32.709,32.506 C -14.646,32.506 0,17.952 0,0"
                   style="fill:#5dc233;fill-opacity:1;fill-rule:nonzero;stroke:none"
                   id="path3384"
                   inkscape:connector-curvature="0" /></g></g></g></g><g
           id="g3386"><g
             id="g3388" /><g
             id="g3394"><g
               clip-path="url(#clipPath3390)"
               id="g3396"
               style="opacity:0.41000396"><g
                 transform="translate(182.8125,575.0664)"
                 id="g3398"><path
                   d="m 0,0 c 0,-26.501 -21.617,-47.984 -48.282,-47.984 -26.668,0 -48.287,21.483 -48.287,47.984 0,26.499 21.619,47.984 48.287,47.984 C -21.617,47.984 0,26.499 0,0"
                   style="fill:#ed1a2d;fill-opacity:1;fill-rule:nonzero;stroke:none"
                   id="path3400"
                   inkscape:connector-curvature="0" /></g></g></g></g></g></g><text
       transform="matrix(1,0,0,-0.99378547,129.8252,621.0234)"
       style="font-variant:normal;font-weight:normal;font-stretch:normal;font-size:8.35140038px;font-family:Arial;-inkscape-font-specification:ArialMT;writing-mode:lr-tb;fill:#110f0d;fill-opacity:1;fill-rule:nonzero;stroke:none"
       id="text3402"><tspan
         x="0"
         y="0"
         id="tspan3404">2</tspan><tspan
         x="-35.000717"
         y="36.470566"
         id="tspan3406">5</tspan><tspan
         x="-16.285231 -11.641851"
         y="36.554077"
         sodipodi:role="line"
         id="tspan3408">33</tspan><tspan
         x="8.4015083 13.044887"
         y="37.514488"
         sodipodi:role="line"
         id="tspan3410">67</tspan><tspan
         x="-1.7871996 2.8561788"
         y="83.405434"
         sodipodi:role="line"
         id="tspan3412">40</tspan><tspan
         x="-66.543953 -59.587238 -54.943859 -50.768162 -46.124783 -41.481403 -36.838024 -34.057011 -27.100292 37.907005 43.47739 48.120766 52.764145 57.407524 62.050903 66.694283 69.475296"
         y="10.130248"
         sodipodi:role="line"
         id="tspan3414">Mesoderm Endoderm</tspan><tspan
         x="-14.781978 -9.2115946 -5.0358944 -2.714205 1.9291734 6.5725517 11.21593 13.996946"
         y="100.60096"
         sodipodi:role="line"
         id="tspan3416">Ectoderm</tspan></text>
<text
       transform="matrix(1,0,0,-0.99379445,139.4419,626.9453)"
       style="font-variant:normal;font-weight:normal;font-stretch:normal;font-size:6.6230998px;font-family:Arial;-inkscape-font-specification:ArialMT;writing-mode:lr-tb;fill:#110f0d;fill-opacity:1;fill-rule:nonzero;stroke:none"
       id="text3418"><tspan
         x="0 4.4176078 8.8352156 13.617094 18.398972"
         y="0"
         sodipodi:role="line"
         id="tspan3420">ESRRA</tspan><tspan
         x="0 4.781878 9.1994858 13.981364 19.134136"
         y="7.9477201"
         sodipodi:role="line"
         id="tspan3422">NANOG</tspan></text>
<text
       transform="matrix(1,0,0,-0.99378547,71.7412,730.1167)"
       style="font-variant:normal;font-weight:normal;font-stretch:normal;font-size:8.35140038px;font-family:Arial;-inkscape-font-specification:ArialMT;writing-mode:lr-tb;fill:#110f0d;fill-opacity:1;fill-rule:nonzero;stroke:none"
       id="text3424"><tspan
         x="0 6.9567161 11.600095 15.775795 20.419172 25.062551 29.705931 32.486946 39.443661 90.520828 96.091209 100.73459 105.37797 110.02135 114.66472 119.3081 122.08912"
         y="0"
         sodipodi:role="line"
         id="tspan3426">Mesoderm Endoderm</tspan></text>
<g
       id="g3428"><g
         id="g3430"
         clip-path="url(#clipPath3432)"><g
           id="g3436"><g
             id="g3438" /><g
             id="g3444"><g
               clip-path="url(#clipPath3440)"
               id="g3446"
               style="opacity:0.41000396"><g
                 transform="translate(181.0962,692.3896)"
                 id="g3448"><path
                   d="m 0,0 c 0,-23.035 -18.674,-41.708 -41.709,-41.708 -23.035,0 -41.71,18.673 -41.71,41.708 0,23.035 18.675,41.709 41.71,41.709 C -18.674,41.709 0,23.035 0,0"
                   style="fill:#ed1a2d;fill-opacity:1;fill-rule:nonzero;stroke:none"
                   id="path3450"
                   inkscape:connector-curvature="0" /></g></g></g></g><g
           id="g3452"><g
             id="g3454" /><g
             id="g3460"><g
               clip-path="url(#clipPath3456)"
               id="g3462"
               style="opacity:0.77000397"><g
                 transform="translate(151.3564,691.9966)"
                 id="g3464"><path
                   d="m 0,0 c 0,-20.054 -16.258,-36.312 -36.313,-36.312 -20.055,0 -36.313,16.258 -36.313,36.312 0,20.056 16.258,36.314 36.313,36.314 C -16.258,36.314 0,20.056 0,0"
                   style="fill:#bf935b;fill-opacity:1;fill-rule:nonzero;stroke:none"
                   id="path3466"
                   inkscape:connector-curvature="0" /></g></g></g></g></g></g><text
       transform="scale(0.95373481,-1.0485095)"
       style="font-variant:normal;font-weight:normal;font-stretch:normal;font-size:7.3637867px;font-family:Arial;-inkscape-font-specification:ArialMT;writing-mode:lr-tb;fill:#5e2590;fill-opacity:1;fill-rule:nonzero;stroke:none"
       id="text3468"
       x="243.3118"
       y="-581.78571"><tspan
         x="243.3118 247.81107 252.31036 257.22198 262.13364 264.18079 265.81552 269.90979 271.95694 276.86859 280.55048 282.5976 286.69186 290.78613 294.8804 297.33255 303.46658 305.5137 309.19562 313.28986 317.38412 321.06604 322.70078 324.74792 326.38269 330.06458 332.11169 336.20596 339.88788 343.98212 348.07639 350.52853 352.98068 359.11472 364.43137 368.52563 370.57275 373.0249 377.11917 381.21344 382.84818 386.94244 391.03671"
         y="-581.78571"
         sodipodi:role="line"
         id="tspan3470"
         style="font-size:8px">TFBS in Ectoderm specific hyper-MHL regions</tspan></text>
<text
       transform="scale(1,-1)"
       style="font-variant:normal;font-weight:normal;font-stretch:normal;font-size:6.93590021px;font-family:Arial;-inkscape-font-specification:ArialMT;writing-mode:lr-tb;fill:#5e2590;fill-opacity:1;fill-rule:nonzero;stroke:none"
       id="text3472"
       x="230.84039"
       y="-742.63013"><tspan
         x="230.84039 235.07825 239.31607 243.94232 248.56857 250.49673 252.0365 255.89288 257.82104 263.59866 267.45502 270.92297 274.77933 278.63568 282.49203 284.8017 290.57932 292.50748 296.36386 300.22021 304.07657 306.00476 309.86111 313.71747 317.57382 321.43021 325.28656 329.14291 331.45258 337.23016 339.15836 342.62631 346.48267 350.33902 352.64868 356.50504 360.36139 362.28958 366.14594 369.61389 373.47025 377.3266 379.63626 385.41388 390.4216 394.27795 396.20612 398.51578 402.37213 406.22852 407.76828 411.62463 415.48099"
         y="-742.63013"
         sodipodi:role="line"
         id="tspan3474"
         style="font-size:8px">TFBS in mesoderm and endoderm shared hypo-MHL regions</tspan></text>
<path
       d="m 345.604,529.048 0.422,0 0,75.727 -0.422,0 0,-75.727 z"
       style="fill:#dbdad8;fill-opacity:1;fill-rule:nonzero;stroke:none"
       id="path3476"
       inkscape:connector-curvature="0" /><path
       d="m 345.605,604.774 0.422,0 0,-75.727 -0.422,0 0,75.727 z"
       style="fill:none;stroke:#dbdad8;stroke-width:0.12;stroke-linecap:butt;stroke-linejoin:bevel;stroke-miterlimit:10;stroke-dasharray:none;stroke-opacity:1"
       id="path3478"
       inkscape:connector-curvature="0" /><g
       id="g3480"
       transform="translate(479.3996,529.0479)"><path
         d="m 0,0 -0.48,0 m 0,75.727 0.48,0 M -14.426,0 -14.904,0 m 0,75.727 0.478,0 M -44.149,0 -44.631,0 m 0,75.727 0.482,0 M -73.793,0 l -0.48,0 0,75.727 0.48,0 0,-75.727 z m -29.641,0 -0.485,0 0,75.727 0.485,0 0,-75.727 z"
         style="fill:#dbdad8;fill-opacity:1;fill-rule:nonzero;stroke:#dbdad8;stroke-width:0.12;stroke-linecap:butt;stroke-linejoin:bevel;stroke-miterlimit:10;stroke-dasharray:none;stroke-opacity:1"
         id="path3482"
         inkscape:connector-curvature="0" /></g><path
       d="m 345.998,602.331 82.344,0 0,-2.68 -82.344,0 0,2.68 z m 0,-7.567 87.967,0 0,-2.68 -87.967,0 0,2.68 z m 0,-7.566 106.605,0 0,-2.741 -106.605,0 0,2.741 z m 0,-7.627 111.906,0 0,-2.679 -111.906,0 0,2.679 z m 0,-7.568 113.998,0 0,-2.678 -113.998,0 0,2.678 z m 0,-7.565 113.998,0 0,-2.678 -113.998,0 0,2.678 z m 0,-7.566 122.913,0 0,-2.681 -122.913,0 0,2.681 z m 0,-7.566 122.591,0 0,-2.681 -122.591,0 0,2.681 z m 0,-7.567 125.804,0 0,-2.679 -125.804,0 0,2.679 z m 0,-7.566 126.848,0 0,-2.681 -126.848,0 0,2.681 z"
       style="fill:#669ad8;fill-opacity:1;fill-rule:nonzero;stroke:none"
       id="path3484"
       inkscape:connector-curvature="0" /><text
       transform="scale(0.98503515,-1.0151922)"
       style="font-variant:normal;font-weight:normal;font-stretch:normal;font-size:6.97168493px;font-family:Arial;-inkscape-font-specification:ArialMT;writing-mode:lr-tb;fill:#525254;fill-opacity:1;fill-rule:nonzero;stroke:none"
       id="text3486"
       x="244.66795"
       y="-522.78619"><tspan
         x="244.66795 249.69461 253.57785 257.46112 261.34436 262.8851 266.76834 268.71344 270.25418 274.13739 278.02063 279.96573 283.84894 285.79404 287.73914 291.96399 293.90909 297.39493 301.27817 302.81891 304.42242 306.36749 310.18796 311.79147 313.73657 315.61893 319.50217 321.84464 325.72787 329.61111 331.55621 333.09692 336.98016 338.92526 340.466 344.34921"
         y="-522.78619"
         sodipodi:role="line"
         id="tspan3488"
         style="font-size:6.5px;letter-spacing:0px;fill:#000000"
         dx="0">Regulation of T cell differentiation</tspan><tspan
         x="299.75137 304.03894 305.98407 309.46991 313.35312 314.89386 316.43463 318.3797 322.26294 325.74878 327.69388 329.23462 332.72046 336.6037 338.54877 340.08954 343.97278"
         y="-530.24591"
         sodipodi:role="line"
         id="tspan3490"
         style="font-size:6.5px;letter-spacing:0px;fill:#000000">T cell activation</tspan><tspan
         x="272.40146 276.28467 280.16791 284.05112 287.53699 291.42023 294.90604 298.39188 300.33701 304.22025 306.16531 310.04855 311.58929 313.53439 315.47949 319.3627 321.64246 325.5257 329.40894 331.35403 332.89474 336.77798 338.72308 340.26382 344.14706"
         y="-537.70563"
         sodipodi:role="line"
         id="tspan3492"
         style="font-size:6.5px;letter-spacing:0px;fill:#000000">Leukocyte differentiation</tspan><tspan
         x="307.46902 312.49564 316.37885 322.20718 326.09039 329.97363 333.85684 335.39758 339.28082 342.76669 344.3074"
         y="-545.16534"
         sodipodi:role="line"
         id="tspan3494"
         style="font-size:6.5px;letter-spacing:0px;fill:#000000">Hemopoiesis</tspan><tspan
         x="226.03252 231.05911 234.9424 238.82567 242.70891 244.24966 248.13295 250.07803 251.61879 255.50206 259.38531 261.33041 265.21365 267.15875 269.10385 270.64456 274.13043 279.95877 283.84198 287.72522 291.54568 295.09427 298.58014 300.52524 304.40845 306.29083 310.17404 311.7775 313.65988 315.60498 319.48819 321.83069 325.71393 329.59717 331.54224 333.08298 336.96619 338.91135 340.45206 344.3353"
         y="-552.625"
         sodipodi:role="line"
         id="tspan3496"
         style="font-size:6.5px;letter-spacing:0px;fill:#000000">Regulation of lymphocyte differentiation</tspan><tspan
         x="229.114 234.14063 238.02386 243.85226 247.73553 251.61879 255.50206 257.04285 260.92606 262.87115 264.4119 267.89774 269.84283 273.72607 276.0058 277.9509 279.55438 283.04022 288.80582 292.68906 296.57227 300.45551 301.99628 305.87949 307.82458 311.64505 315.52829 319.01413 322.89737 324.43811 328.32132 332.20456 338.0329 341.91611 345.79935"
         y="-560.09167"
         sodipodi:role="line"
         id="tspan3498"
         style="font-size:6.5px;letter-spacing:0px;fill:#000000">Hemopoietic or lymphoid development</tspan><tspan
         x="287.40451 291.69211 293.63718 297.12305 301.00629 302.547 304.08774 306.03287 309.91611 311.45685 313.40192 315.34702 319.23026 321.50998 325.39322 329.27643 331.22156 332.7623 336.64554 338.59064 340.13135 344.01459"
         y="-567.55139"
         sodipodi:role="line"
         id="tspan3500"
         style="font-size:6.5px;letter-spacing:0px;fill:#000000">T cell differentiation</tspan><tspan
         x="256.95917 258.90427 264.7326 270.56091 274.38141 278.26465 282.14789 284.09299 287.5788 291.06467 294.61325 296.49557 300.37881 306.20715 308.15225 312.03549 315.9187 319.40454 323.28778 324.82852 328.71173 332.59497 338.42331 342.30655 346.18976"
         y="-575.01111"
         sodipodi:role="line"
         id="tspan3502"
         style="font-size:6.5px;letter-spacing:0px;fill:#000000">Immune system development</tspan><tspan
         x="278.85724 282.74048 286.22629 292.05463 295.93784 299.82108 303.70428 307.19016 310.67599 312.62109 316.5043 318.44943 322.2699 325.81848 327.76358 329.30435 332.79019 336.6734 338.6185 340.15924 344.04248"
         y="-582.47083"
         sodipodi:role="line"
         id="tspan3504"
         style="font-size:6.5px;letter-spacing:0px;fill:#000000">Lymphocyte activation</tspan><tspan
         x="266.58008 270.46332 273.94919 279.7775 283.66074 287.54395 291.42719 294.91302 298.39886 300.34396 304.2272 306.1723 309.9928 311.59625 313.54135 315.48648 319.30695 321.64944 325.53265 329.41589 331.36099 332.9017 336.78494 338.73004 340.27081 344.15405"
         y="-589.93048"
         sodipodi:role="line"
         id="tspan3506"
         style="font-size:6.5px;letter-spacing:0px;fill:#000000">Lymphocyte differentiation</tspan></text>
<g
       id="g3508"
       transform="translate(486.4475,641.4458)"><path
         d="m 0,0 -0.335,0 m 0,97.197 0.335,0 M -28.597,0 -28.93,0 m 0,97.197 0.333,0 M -57.192,0 -57.526,0 m 0,97.197 0.334,0 M -85.79,0 -86.122,0 m -28.263,0 -0.333,0"
         style="fill:#dbdad8;fill-opacity:1;fill-rule:nonzero;stroke:#dbdad8;stroke-width:0.12;stroke-linecap:butt;stroke-linejoin:bevel;stroke-miterlimit:10;stroke-dasharray:none;stroke-opacity:1"
         id="path3510"
         inkscape:connector-curvature="0" /></g><path
       d="m 343.299,736.404 59.248,0 0,-2.451 -59.248,0 0,2.451 z m 0,-6.927 60.081,0 0,-2.451 -60.081,0 0,2.451 z m 0,-6.928 62.746,0 0,-2.503 -62.746,0 0,2.503 z m 0,-6.98 69.074,0 0,-2.452 -69.074,0 0,2.452 z m 0,-6.927 73.404,0 0,-2.451 -73.404,0 0,2.451 z m 0,-6.928 97.171,0 0,-2.451 -97.171,0 0,2.451 z m 0,-6.98 99.781,0 0,-2.454 -99.781,0 0,2.454 z m 0,-6.928 111.997,0 0,-2.452 -111.997,0 0,2.452 z m 0,-6.927 111.997,0 0,-2.451 -111.997,0 0,2.451 z m 0,-6.983 117.827,0 0,-2.449 -117.827,0 0,2.449 z m 0,-6.926 130.119,0 0,-2.45 -130.119,0 0,2.45 z m 0,-6.927 133.783,0 0,-2.451 -133.783,0 0,2.451 z m 0,-6.928 135.84,0 0,-2.504 -135.84,0 0,2.504 z m 0,-6.98 141.945,0 0,-2.451 -141.945,0 0,2.451 z"
       style="fill:#669ad8;fill-opacity:1;fill-rule:nonzero;stroke:none"
       id="path3512"
       inkscape:connector-curvature="0" /><path
       d="m 343.132,641.446 0.333,0 0,97.196 -0.333,0 0,-97.196 z"
       style="fill:#dbdad8;fill-opacity:1;fill-rule:nonzero;stroke:none"
       id="path3514"
       inkscape:connector-curvature="0" /><path
       d="m 343.132,738.643 0.333,0 0,-97.197 -0.333,0 0,97.197 z"
       style="fill:none;stroke:#dbdad8;stroke-width:0.12;stroke-linecap:butt;stroke-linejoin:bevel;stroke-miterlimit:10;stroke-dasharray:none;stroke-opacity:1"
       id="path3516"
       inkscape:connector-curvature="0" /><text
       transform="scale(1.0207878,-0.97963554)"
       style="font-variant:normal;font-weight:normal;font-stretch:normal;font-size:5.90005112px;font-family:Arial;-inkscape-font-specification:ArialMT;writing-mode:lr-tb;fill:#525254;fill-opacity:1;fill-rule:nonzero;stroke:none"
       id="text3518"
       x="335.26526"
       y="-648.23309"><tspan
         x="335.26526 361.73288 365.01331 366.65353 391.29803 417.76566 421.04608 422.68631 447.32492 473.79254 477.07297 478.7132"
         y="-648.23309"
         sodipodi:role="line"
         id="tspan3520"
         style="font-size:6.5px">00.511.522.5</tspan></text>
<text
       transform="scale(1.0207893,-0.9796341)"
       style="font-variant:normal;font-weight:normal;font-stretch:normal;font-size:6.49007607px;font-family:Arial;-inkscape-font-specification:ArialMT;writing-mode:lr-tb;fill:#525254;fill-opacity:1;fill-rule:nonzero;stroke:none"
       id="text3522"
       x="221.22726"
       y="-656.61719"><tspan
         x="221.22726 225.56912 230.97537 234.6033 236.75153 239.99658 243.61154 247.2395 248.68677 251.93182 253.71011 257.33804 260.9595 264.20456 267.82602 269.27332 272.88828 276.45782 281.91595 285.47903 289.10696 290.91769 292.74789 296.31094 299.9389 303.56686 305.01416 308.58368 312.19217 314.02237 315.46967 319.09763 320.87589 324.50385 325.95114 328.09933 329.9101"
         y="-656.61719"
         sodipodi:role="line"
         id="tspan3524"
         style="font-size:6.5px;fill:#000000">Embryonic development ending in birth</tspan><tspan
         x="279.69635 283.31784 286.94577 290.51532 294.12381 295.95401 299.58197 303.14502 306.39005 310.01151 311.4588 315.07376 318.70172 324.10794 327.7294 331.35736"
         y="-663.70435"
         sodipodi:role="line"
         id="tspan3526"
         style="font-size:6.5px;fill:#000000">Lung development</tspan><tspan
         x="246.70731 251.4256 254.98865 258.25314 261.8811 263.3284 265.47659 269.09158 270.90231 274.51727 276.6655 279.91055 281.74072 283.55148 287.121 290.74896 294.37042 296.20062 299.77017 303.39163 306.63666 310.25815 311.70541 315.3204 318.88992 324.34808 327.96954 331.53909"
         y="-670.79797"
         sodipodi:role="line"
         id="tspan3528"
         style="font-size:6.5px;fill:#000000">Respiratory tube development</tspan><tspan
         x="238.78943 243.50769 247.07074 250.33527 253.96323 255.41049 257.55872 261.17368 262.98441 266.5994 268.74762 271.99265 273.82285 277.08734 280.3324 283.59689 285.34921 288.97067 294.37692 296.20712 299.83505 303.45654 306.70157 310.26462 311.71191 315.32687 318.95483 324.36108 327.98251 331.61047"
         y="-677.88519"
         sodipodi:role="line"
         id="tspan3530"
         style="font-size:6.5px;fill:#000000">Respiratory system development</tspan><tspan
         x="280.03384 283.6553 285.1026 288.34763 291.96909 294.11731 295.8956 299.52356 303.14502 306.39005 310.01151 311.4588 315.07376 318.64331 324.10147 327.66452 331.29248"
         y="-684.97235"
         sodipodi:role="line"
         id="tspan3532"
         style="font-size:6.5px;fill:#000000">Liver development</tspan><tspan
         x="245.18863 249.53049 254.93674 258.56467 260.71289 263.95792 267.57291 271.20087 272.64813 275.89319 277.67145 281.28644 283.49307 287.10153 290.71652 294.28604 296.11627 299.7442 303.30725 306.55231 310.17377 311.62106 315.23602 318.86398 324.2702 327.89166 331.51962"
         y="-692.05951"
         sodipodi:role="line"
         id="tspan3534"
         style="font-size:6.5px;fill:#000000">Embryonic organ development</tspan><tspan
         x="268.89688 273.23874 274.68604 278.30099 281.54602 285.16751 288.73703 290.54776 294.16275 295.99295 299.5625 303.18396 306.42899 310.05045 311.49774 315.1127 318.74066 324.14688 327.76834 331.33789"
         y="-699.15314"
         sodipodi:role="line"
         id="tspan3536"
         style="font-size:6.5px;fill:#000000">Placenta development</tspan><tspan
         x="255.22879 260.63501 264.26297 267.52747 270.77252 272.16138 275.78284 277.61304 281.22803 283.37625 286.98471 290.5997 294.22763 296.00592 299.63388 303.25534 306.50037 310.12183 311.56912 315.18411 318.75363 324.15988 327.78134 331.4093"
         y="-706.2403"
         sodipodi:role="line"
         id="tspan3538"
         style="font-size:6.5px;fill:#000000">Muscle organ development</tspan><tspan
         x="279.31345 283.29837 286.86789 290.49585 294.11731 295.94751 299.51706 303.13852 306.38354 310.005 311.4523 315.06729 318.69522 324.10147 327.72293 331.29248"
         y="-713.32745"
         sodipodi:role="line"
         id="tspan3540"
         style="font-size:6.5px;fill:#000000">Tube development</tspan><tspan
         x="248.73221 253.07407 256.30612 259.92758 261.37488 264.99634 266.80707 270.42206 271.86932 273.64761 276.91211 280.15717 283.42166 285.23239 288.79544 294.2536 296.03189 299.65985 303.28131 306.52634 310.1478 311.59509 315.15164 318.7796 324.18582 327.80731 331.43524"
         y="-720.42114"
         sodipodi:role="line"
         id="tspan3542"
         style="font-size:6.5px;fill:#000000">Skeletal system development</tspan><tspan
         x="237.28372 241.62558 247.0318 250.65976 252.80798 256.05301 259.668 263.29593 264.74323 267.98825 269.76654 273.3945 274.8418 278.45676 281.70181 285.32324 288.9512 290.70352 294.31851 296.14871 299.77667 303.33972 306.58475 310.20621 311.6535 315.26846 318.89642 324.30264 327.92413 331.55206"
         y="-727.5083"
         sodipodi:role="line"
         id="tspan3544"
         style="font-size:6.5px;fill:#000000">Embryonic placenta development</tspan><tspan
         x="240.47684 242.2746 245.90253 247.73273 251.30228 253.11301 256.73447 258.88269 262.49765 264.32785 267.94934 273.35556 276.92511 279.13171 282.37677 285.99173 289.61969 291.06699 294.31201 296.0903 299.71826 303.33972 306.58475 310.20621 311.59509 315.21005 318.83801 324.24423 327.86572 331.49365"
         y="-734.59546"
         sodipodi:role="line"
         id="tspan3546"
         style="font-size:6.5px;fill:#000000">In utero embryonic development</tspan><tspan
         x="266.65131 270.99316 274.60815 278.17767 281.48114 283.62936 287.25082 290.86578 294.07187 295.90207 299.53003 303.09308 306.33813 309.95959 311.40686 315.02185 318.64981 324.05603 327.67749 331.30545"
         y="-741.68262"
         sodipodi:role="line"
         id="tspan3548"
         style="font-size:6.5px;fill:#000000">Pancreas development</tspan><tspan
         x="283.4671 288.53586 292.10538 293.91611 295.74634 299.37427 302.93732 306.18237 309.80383 311.25113 314.86609 318.49405 323.90027 327.52173 331.14969"
         y="-748.76978"
         sodipodi:role="line"
         id="tspan3550"
         style="font-size:6.5px;fill:#000000">Gut development</tspan></text>
<text
       transform="scale(1.0483197,-0.95390747)"
       style="font-variant:normal;font-weight:normal;font-stretch:normal;font-size:7.41958761px;font-family:Arial;-inkscape-font-specification:ArialMT;writing-mode:lr-tb;fill:#525254;fill-opacity:1;fill-rule:nonzero;stroke:none"
       id="text3552"
       x="330.78821"
       y="-536.755"><tspan
         x="330.78821 333.25894 334.9061 339.03137 343.15668 347.28195 351.40726 353.87799 358.82684 362.95215 367.07742 368.72458 372.84985 379.0304 380.67752 384.80283 386.44998 388.5126 393.46149 395.93219 399.642 403.7673 405.41443 409.53973 413.66501"
         y="-536.755"
         sodipodi:role="line"
         id="tspan3554">-log10(Benjamini P-value)</tspan></text>
<text
       transform="scale(0.97356338,-1.0271545)"
       style="font-variant:normal;font-weight:normal;font-stretch:normal;font-size:6.26410151px;font-family:Arial;-inkscape-font-specification:ArialMT;writing-mode:lr-tb;fill:#525254;fill-opacity:1;fill-rule:nonzero;stroke:none"
       id="text3556"
       x="356.18628"
       y="-509.75555"><tspan
         x="356.18628 384.28705 387.76987 389.51129 415.67645 443.77722 447.26007 449.00146 475.16663 503.2674 506.75024 508.49164"
         y="-509.75555"
         sodipodi:role="line"
         id="tspan3558"
         style="font-size:6.5px">00.511.522.5</tspan></text>
<text
       transform="matrix(1,0,0,-0.99378547,119.9463,692.6401)"
       style="font-variant:normal;font-weight:normal;font-stretch:normal;font-size:8.35140038px;font-family:Arial;-inkscape-font-specification:ArialMT;writing-mode:lr-tb;fill:#110f0d;fill-opacity:1;fill-rule:nonzero;stroke:none"
       id="text3560"><tspan
         x="0 4.6433783"
         y="0"
         sodipodi:role="line"
         id="tspan3562">40</tspan><tspan
         x="41.088886 45.732265"
         y="-0.14197379"
         sodipodi:role="line"
         id="tspan3564">31</tspan><tspan
         x="-33.697899 -29.05452"
         y="0.25054201"
         sodipodi:role="line"
         id="tspan3566">13</tspan><tspan
         x="0"
         sodipodi:role="line"
         id="tspan3572"
         y="57.048412" /><tspan
         x="0"
         y="0"
         sodipodi:role="line"
         id="tspan3574" /></text>
<text
       y="-653.9433"
       x="327.29605"
       transform="scale(1.0483197,-0.95390747)"
       style="font-variant:normal;font-weight:normal;font-stretch:normal;font-size:7.41958761px;font-family:Arial;-inkscape-font-specification:ArialMT;writing-mode:lr-tb;fill:#525254;fill-opacity:1;fill-rule:nonzero;stroke:none"
       id="text3552-6"><tspan
         x="327.29605 329.76678 331.41394 335.53922 339.66452 343.78979 347.9151 350.38583 355.33469 359.45996 363.58527 365.23242 369.3577 375.53821 377.18536 381.31067 382.95782 385.02045 389.96933 392.44003 396.14984 400.27512 401.92227 406.04758 410.17285"
         y="-653.9433"
         sodipodi:role="line"
         id="tspan3554-9">-log10(Benjamini P-value)</tspan></text>
<text
       xml:space="preserve"
       style="font-style:normal;font-weight:normal;font-size:32px;line-height:109.00000334%;font-family:sans-serif;letter-spacing:0px;word-spacing:0px;fill:#000000;fill-opacity:1;stroke:none;stroke-width:1px;stroke-linecap:butt;stroke-linejoin:miter;stroke-opacity:1"
       x="94.730583"
       y="-758.7345"
       id="text3610"
       sodipodi:linespacing="109%"
       transform="scale(1,-1)"><tspan
         sodipodi:role="line"
         id="tspan3612"
         x="94.730583"
         y="-758.7345"
         style="font-style:normal;font-variant:normal;font-weight:normal;font-stretch:normal;font-size:12px;line-height:109.00000334%;font-family:Arial;-inkscape-font-specification:Arial" /><tspan
         sodipodi:role="line"
         x="94.730583"
         y="-747.37073"
         style="font-style:normal;font-variant:normal;font-weight:normal;font-stretch:normal;font-size:10px;line-height:109.00000334%;font-family:Arial;-inkscape-font-specification:Arial"
         id="tspan3634">hypo-MHL factors</tspan><tspan
         sodipodi:role="line"
         x="94.730583"
         y="-736.4707"
         id="tspan3614"
         style="font-style:normal;font-variant:normal;font-weight:normal;font-stretch:normal;font-size:10px;line-height:109.00000334%;font-family:Arial;-inkscape-font-specification:Arial" /><tspan
         sodipodi:role="line"
         x="94.730583"
         y="-725.57074"
         style="font-style:normal;font-variant:normal;font-weight:normal;font-stretch:normal;font-size:10px;line-height:109.00000334%;font-family:Arial;-inkscape-font-specification:Arial"
         id="tspan3624" /><tspan
         sodipodi:role="line"
         x="94.730583"
         y="-714.67072"
         style="font-style:normal;font-variant:normal;font-weight:normal;font-stretch:normal;font-size:10px;line-height:109.00000334%;font-family:Arial;-inkscape-font-specification:Arial"
         id="tspan3626" /><tspan
         sodipodi:role="line"
         x="94.730583"
         y="-703.77075"
         style="font-style:normal;font-variant:normal;font-weight:normal;font-stretch:normal;font-size:10px;line-height:109.00000334%;font-family:Arial;-inkscape-font-specification:Arial"
         id="tspan3628" /><tspan
         sodipodi:role="line"
         x="94.730583"
         y="-692.87073"
         style="font-style:normal;font-variant:normal;font-weight:normal;font-stretch:normal;font-size:10px;line-height:109.00000334%;font-family:Arial;-inkscape-font-specification:Arial"
         id="tspan3630" /><tspan
         sodipodi:role="line"
         x="94.730583"
         y="-681.9707"
         style="font-style:normal;font-variant:normal;font-weight:normal;font-stretch:normal;font-size:10px;line-height:109.00000334%;font-family:Arial;-inkscape-font-specification:Arial"
         id="tspan3632" /><tspan
         sodipodi:role="line"
         x="94.730583"
         y="-671.07074"
         id="tspan3616"
         style="font-style:normal;font-variant:normal;font-weight:normal;font-stretch:normal;font-size:10px;line-height:109.00000334%;font-family:Arial;-inkscape-font-specification:Arial" /><tspan
         sodipodi:role="line"
         x="94.730583"
         y="-660.17072"
         id="tspan3620"
         style="font-style:normal;font-variant:normal;font-weight:normal;font-stretch:normal;font-size:10px;line-height:109.00000334%;font-family:Arial;-inkscape-font-specification:Arial"></tspan><tspan
         sodipodi:role="line"
         x="94.730583"
         y="-649.27075"
         style="font-style:normal;font-variant:normal;font-weight:normal;font-stretch:normal;font-size:10px;line-height:109.00000334%;font-family:Arial;-inkscape-font-specification:Arial"
         id="tspan3640"></tspan><tspan
         sodipodi:role="line"
         x="94.730583"
         y="-638.37073"
         style="font-style:normal;font-variant:normal;font-weight:normal;font-stretch:normal;font-size:10px;line-height:109.00000334%;font-family:Arial;-inkscape-font-specification:Arial"
         id="tspan3642">hyper-MHL factors</tspan></text>
<text
       xml:space="preserve"
       style="font-style:normal;font-weight:normal;font-size:32px;line-height:125%;font-family:sans-serif;letter-spacing:0px;word-spacing:0px;fill:#000000;fill-opacity:1;stroke:none;stroke-width:1px;stroke-linecap:butt;stroke-linejoin:miter;stroke-opacity:1"
       x="53.352913"
       y="-754.24164"
       id="text3636"
       sodipodi:linespacing="125%"
       transform="scale(1,-1)"><tspan
         sodipodi:role="line"
         id="tspan3638"
         x="53.352913"
         y="-754.24164"
         style="font-size:12px;-inkscape-font-specification:Arial;font-family:Arial;font-weight:normal;font-style:normal;font-stretch:normal;font-variant:normal">a</tspan></text>
<text
       xml:space="preserve"
       style="font-style:normal;font-weight:normal;font-size:32px;line-height:125%;font-family:sans-serif;letter-spacing:0px;word-spacing:0px;fill:#000000;fill-opacity:1;stroke:none;stroke-width:1px;stroke-linecap:butt;stroke-linejoin:miter;stroke-opacity:1"
       x="212.02559"
       y="-754.24164"
       id="text3636-4"
       sodipodi:linespacing="125%"
       transform="scale(1,-1)"><tspan
         sodipodi:role="line"
         id="tspan3638-0"
         x="212.02559"
         y="-754.24164"
         style="font-style:normal;font-variant:normal;font-weight:normal;font-stretch:normal;font-size:12px;font-family:Arial;-inkscape-font-specification:Arial">b</tspan></text>
</g></svg>